<?xml version="1.0" encoding="utf-8"?>
<!-- Generator: Adobe Illustrator 16.0.0, SVG Export Plug-In . SVG Version: 6.00 Build 0)  -->
<!DOCTYPE svg PUBLIC "-//W3C//DTD SVG 1.1//EN" "http://www.w3.org/Graphics/SVG/1.1/DTD/svg11.dtd">
<svg version="1.1" id="Layer_1" xmlns="http://www.w3.org/2000/svg" xmlns:xlink="http://www.w3.org/1999/xlink" x="0px" y="0px"
	 width="400px" height="400px" viewBox="0 0 400 400" enable-background="new 0 0 400 400" xml:space="preserve">
<rect x="147.438" y="177" fill="none" width="172" height="68"/>
<text transform="matrix(1 0 0 1 171.0024 211.3672)"><tspan x="0" y="0" font-family="'ArialMT'" font-size="48" letter-spacing="1">Blank</tspan><tspan x="19.259" y="16" fill="#C91717" font-family="'MyriadPro-Regular'" font-size="16" letter-spacing="3">solutions</tspan></text>
<g id="XMLID_7_">
	<g>
		<path fill="#C9D6D5" d="M136.55,228.91c1.59,0.28,2.19,0.97,1.47,2.81c-1.95,4.95-4.77,9.57-5.81,14.88
			c-7.21,1.78-13.98-0.119-20.46-2.93c-10.81-4.68-19.37-12.12-25.67-22.13c0.29-6.021,2.98-10.75,7.4-14.78
			c1.77-1.63,2.86-1.359,4.25,0.07c4.63,4.72,9.89,8.63,15.55,12.02C120.59,223.23,128,227.39,136.55,228.91z"/>
	</g>
	<g>
		<path fill="none" stroke="#000000" stroke-width="0.5" stroke-linecap="round" stroke-linejoin="round" d="M132.21,246.6
			c-7.21,1.78-13.98-0.119-20.46-2.93c-10.81-4.68-19.37-12.12-25.67-22.13c0.29-6.021,2.98-10.75,7.4-14.78
			c1.77-1.63,2.86-1.359,4.25,0.07c4.63,4.72,9.89,8.63,15.55,12.02c7.31,4.381,14.72,8.54,23.27,10.061
			c1.59,0.28,2.19,0.97,1.47,2.81C136.07,236.67,133.25,241.29,132.21,246.6z"/>
	</g>
</g>
<g id="XMLID_6_">
	<g>
		<path fill="#C9D6D5" d="M157.24,214.68c0.83,1.95,1.39,3.94,0.85,6.08c-1.69,2.51-3.48,4.74-6.6,5.84
			c-9.24,3.271-17.8,1.32-26.19-2.8c-0.06-4.46-0.31-8.93,0.71-13.33c0.7-3.08,1.5-6.12,2.25-9.18c1-0.85,0.61-2.56,2.54-3.04
			c5.38-1.36,10.79-1.89,16.3-1.58C150.04,202.92,154.55,208.29,157.24,214.68z"/>
	</g>
	<g>
		<path fill="none" stroke="#000000" stroke-width="0.5" stroke-linecap="round" stroke-linejoin="round" d="M147.1,196.67
			c2.94,6.25,7.45,11.62,10.14,18.01c0.83,1.95,1.39,3.94,0.85,6.08c-1.69,2.51-3.48,4.74-6.6,5.84c-9.24,3.271-17.8,1.32-26.19-2.8
			c-0.06-4.46-0.31-8.93,0.71-13.33c0.7-3.08,1.5-6.12,2.25-9.18c1-0.85,0.61-2.56,2.54-3.04
			C136.18,196.89,141.59,196.36,147.1,196.67z"/>
	</g>
</g>
<g id="XMLID_2_">
	<g>
		<path fill="#FFFFFF" d="M97.73,206.83c-1.39-1.43-2.48-1.7-4.25-0.07c-4.42,4.03-7.11,8.76-7.4,14.78
			c-3.5-4.67-5.56-10.021-6.09-15.73c-1-10.859,0.75-21.439,4.36-31.72c0.56,3.28,1.03,9.9,1.03,9.9s3.82,11.31,7.56,16.05
			c7.35,9.33,17.03,15.77,27.18,21.59c0.8,0.46,1.58,1,2.42,1.43l-0.39,0.78c-3.02-1.53-5.95-3.24-8.87-4.99
			C107.62,215.46,102.36,211.55,97.73,206.83z"/>
		<path fill="#C9D6D5" d="M136.55,228.91c-5.14-0.91-9.86-2.78-14.4-5.07l0.39-0.78c0.84,0.44,1.73,0.75,2.76,0.74
			c8.39,4.12,16.95,6.07,26.19,2.8c3.12-1.1,4.91-3.33,6.6-5.84c-1.84,11.86-14.45,24.45-25.88,25.84
			c1.04-5.31,3.86-9.93,5.81-14.88C138.74,229.88,138.14,229.19,136.55,228.91z"/>
	</g>
	<g>
		<path fill="none" stroke="#000000" stroke-width="0.5" stroke-linecap="round" stroke-linejoin="round" d="M122.54,223.06
			c0.84,0.44,1.73,0.75,2.76,0.74c8.39,4.12,16.95,6.07,26.19,2.8c3.12-1.1,4.91-3.33,6.6-5.84c-1.84,11.86-14.45,24.45-25.88,25.84
			c1.04-5.31,3.86-9.93,5.81-14.88c0.72-1.84,0.12-2.529-1.47-2.81c-5.14-0.91-9.86-2.78-14.4-5.07c-3.02-1.53-5.95-3.24-8.87-4.99
			c-5.66-3.39-10.92-7.3-15.55-12.02c-1.39-1.43-2.48-1.7-4.25-0.07c-4.42,4.03-7.11,8.76-7.4,14.78
			c-3.5-4.67-5.56-10.021-6.09-15.73c-1-10.859,0.75-21.439,4.36-31.72c0.56,3.28,1.03,9.9,1.03,9.9s3.82,11.31,7.56,16.05
			c7.35,9.33,17.03,15.77,27.18,21.59C120.92,222.09,121.7,222.63,122.54,223.06z"/>
	</g>
</g>
<g id="XMLID_3_">
	<g>
		<path fill="#C9D6D5" d="M130.8,198.25c-1.93,0.48-2.42,7.09-3.42,7.94c-0.34-1.08,1.05-6.96,1.31-7.96
			c1.5-5.71,3.15-11.4,3.92-17.27c0.72-5.58,1.28-11.19-0.99-16.6c-2.1-2.82-4.17-5.66-6.91-7.92c10.17,4.1,19.15,9.42,21.64,21.31
			c0.66,3.17-0.32,6.29-0.41,9.43c-0.09,3.24-0.11,6.43,1.16,9.49C141.59,196.36,136.18,196.89,130.8,198.25z"/>
	</g>
	<g>
		<path fill="none" stroke="#000000" stroke-width="0.5" stroke-linecap="round" stroke-linejoin="round" d="M147.1,196.67
			c-5.51-0.31-10.92,0.22-16.3,1.58c-1.93,0.48-2.42,7.09-3.42,7.94c-0.34-1.08,1.05-6.96,1.31-7.96c1.5-5.71,3.15-11.4,3.92-17.27
			c0.72-5.58,1.28-11.19-0.99-16.6c-2.1-2.82-4.17-5.66-6.91-7.92c10.17,4.1,19.15,9.42,21.64,21.31c0.66,3.17-0.32,6.29-0.41,9.43
			C145.85,190.42,145.83,193.61,147.1,196.67z"/>
	</g>
</g>
<g id="XMLID_5_">
	<g>
		<path fill="#C9D6D5" d="M113.66,157.66c1.17,3.11,1.99,6.56,5.56,8.05c-8.08,2.42-15.73,5.83-23.09,9.92
			c-2.87-3.08-6.83-3.29-10.95-3.71c1.44-8.19,10.13-17,19.59-18.48c2.87-0.44,5.78-1.2,8.69-0.14
			C111.72,154.82,113.16,156.33,113.66,157.66z"/>
	</g>
	<g>
		<path fill="none" stroke="#000000" stroke-width="0.5" stroke-linecap="round" stroke-linejoin="round" d="M85.18,171.92
			c1.44-8.19,10.13-17,19.59-18.48c2.87-0.44,5.78-1.2,8.69-0.14c-1.74,1.52-0.3,3.03,0.2,4.36c1.17,3.11,1.99,6.56,5.56,8.05
			c-8.08,2.42-15.73,5.83-23.09,9.92C93.26,172.55,89.3,172.34,85.18,171.92z"/>
	</g>
</g>
<g id="XMLID_4_">
	<g>
		<path fill="#FFFFFF" d="M131.62,164.36c-4.2-0.19-8.29,0.64-12.4,1.35c-3.57-1.49-4.39-4.94-5.56-8.05
			c-0.5-1.33-5.08-3.38-3.34-4.9c3.15,0.04,9.3,1.23,12.14,2.65c0.62,0.57,1.36,0.91,2.2,1l0.05,0.03
			C127.45,158.7,129.52,161.54,131.62,164.36z"/>
	</g>
	<g>
		<path fill="none" stroke="#000000" stroke-width="0.5" stroke-linecap="round" stroke-linejoin="round" d="M119.22,165.71
			c-3.57-1.49-4.39-4.94-5.56-8.05c-0.5-1.33-5.08-3.38-3.34-4.9c3.15,0.04,9.3,1.23,12.14,2.65c0.62,0.57,1.36,0.91,2.2,1
			l0.05,0.03c2.74,2.26,4.81,5.1,6.91,7.92C127.42,164.17,123.33,165,119.22,165.71z"/>
	</g>
</g>
<g id="XMLID_8_">
	<g>
		<polygon fill="#FFFFFF" points="96.13,175.63 85.38,183.99 85.18,181.31 84.35,174.09 85.18,171.92 87.99,172.22 91.53,172.9 
			94.26,174.09 		"/>
	</g>
	<g>
		<polygon fill="none" stroke="#000000" stroke-width="0.5" stroke-linecap="round" stroke-linejoin="round" points="87.99,172.22 
			91.53,172.9 94.26,174.09 96.13,175.63 85.38,183.99 85.18,181.31 84.35,174.09 85.18,171.92 		"/>
	</g>
</g>
</svg>
