<?xml version="1.0" encoding="utf-8"?>
<!-- Generator: Adobe Illustrator 16.0.0, SVG Export Plug-In . SVG Version: 6.00 Build 0)  -->
<!DOCTYPE svg PUBLIC "-//W3C//DTD SVG 1.1//EN" "http://www.w3.org/Graphics/SVG/1.1/DTD/svg11.dtd">
<svg version="1.1" id="Layer_1" xmlns="http://www.w3.org/2000/svg" xmlns:xlink="http://www.w3.org/1999/xlink" x="0px" y="0px"
	 width="181.545px" height="71.99px" viewBox="0 0 181.545 71.99" enable-background="new 0 0 181.545 71.99" xml:space="preserve">
<rect x="51.468" y="18.582" fill="none" width="130.077" height="51.426"/>
<text transform="matrix(1 0 0 1 69.2896 44.5723)"><tspan x="0" y="0" font-family="'ArialMT'" font-size="36.3006">Blank</tspan><tspan x="14.565" y="12.101" fill="#C91717" font-family="'MyriadPro-Regular'" font-size="12.1002" letter-spacing="2">solutions</tspan></text>
<g id="XMLID_7_">
	<g>
		<path fill="#C9D6D5" d="M43.234,57.839c1.203,0.212,1.656,0.734,1.112,2.125c-1.475,3.744-3.607,7.238-4.394,11.254
			c-5.453,1.346-10.572-0.091-15.473-2.216c-8.175-3.54-14.649-9.166-19.414-16.736c0.219-4.553,2.254-8.13,5.597-11.178
			c1.338-1.232,2.163-1.028,3.214,0.053c3.501,3.569,7.479,6.526,11.76,9.09C31.165,53.544,36.769,56.689,43.234,57.839z"/>
	</g>
	<g>
		<path fill="none" stroke="#000000" stroke-width="0.5" stroke-linecap="round" stroke-linejoin="round" d="M39.952,71.218
			c-5.453,1.346-10.572-0.091-15.473-2.216c-8.175-3.54-14.649-9.166-19.414-16.736c0.219-4.553,2.254-8.13,5.597-11.178
			c1.338-1.232,2.163-1.028,3.214,0.053c3.501,3.569,7.479,6.526,11.76,9.09c5.528,3.313,11.132,6.458,17.598,7.607
			c1.203,0.212,1.656,0.734,1.112,2.125C42.872,63.708,40.739,67.202,39.952,71.218z"/>
	</g>
</g>
<g id="XMLID_6_">
	<g>
		<path fill="#C9D6D5" d="M58.882,47.078c0.627,1.475,1.051,2.98,0.643,4.598c-1.278,1.898-2.632,3.585-4.991,4.416
			c-6.988,2.474-13.461,0.999-19.807-2.117c-0.045-3.373-0.234-6.753,0.537-10.081c0.529-2.329,1.134-4.628,1.702-6.942
			c0.756-0.643,0.461-1.936,1.921-2.299c4.068-1.029,8.16-1.43,12.327-1.195C53.437,38.184,56.847,42.245,58.882,47.078z"/>
	</g>
	<g>
		<path fill="none" stroke="#000000" stroke-width="0.5" stroke-linecap="round" stroke-linejoin="round" d="M51.213,33.458
			c2.224,4.727,5.634,8.788,7.669,13.62c0.627,1.475,1.051,2.98,0.643,4.598c-1.278,1.898-2.632,3.585-4.991,4.416
			c-6.988,2.474-13.461,0.999-19.807-2.117c-0.045-3.373-0.234-6.753,0.537-10.081c0.529-2.329,1.134-4.628,1.702-6.942
			c0.756-0.643,0.461-1.936,1.921-2.299C42.955,33.624,47.046,33.223,51.213,33.458z"/>
	</g>
</g>
<g id="XMLID_2_">
	<g>
		<path fill="#C9D6D5" d="M54.533,56.092c2.359-0.831,3.713-2.518,4.991-4.416c-1.392,8.969-10.928,18.49-19.572,19.542
			c0.787-4.016,2.919-7.51,4.394-11.254c0.544-1.391,0.091-1.913-1.112-2.125c-3.887-0.688-7.457-2.103-10.89-3.834l0.295-0.59
			c0.635,0.333,1.309,0.567,2.087,0.56C41.072,57.091,47.545,58.565,54.533,56.092z"/>
		<path fill="#FFFFFF" d="M32.639,53.415l-0.295,0.59c-2.276-1.149-4.5-2.45-6.708-3.773c-4.28-2.564-8.258-5.521-11.76-9.09
			c-1.051-1.082-1.875-1.286-3.214-0.053c-3.343,3.048-5.377,6.625-5.597,11.178C2.419,48.733,0.861,44.688,0.46,40.37
			c-0.756-8.213,0.567-16.214,3.297-23.989c0.423,2.48,0.779,7.487,0.779,7.487s2.889,8.553,5.717,12.138
			c5.559,7.056,12.879,11.926,20.555,16.328C31.414,52.682,32.004,53.09,32.639,53.415z"/>
	</g>
	<g>
		<path fill="none" stroke="#000000" stroke-width="0.5" stroke-linecap="round" stroke-linejoin="round" d="M32.639,53.415
			c0.635,0.333,1.309,0.567,2.087,0.56c6.345,3.116,12.819,4.591,19.807,2.117c2.359-0.831,3.713-2.518,4.991-4.416
			c-1.392,8.969-10.928,18.49-19.572,19.542c0.787-4.016,2.919-7.51,4.394-11.254c0.544-1.391,0.091-1.913-1.112-2.125
			c-3.887-0.688-7.457-2.103-10.89-3.834c-2.276-1.149-4.5-2.45-6.708-3.773c-4.28-2.564-8.258-5.521-11.76-9.09
			c-1.051-1.082-1.875-1.286-3.214-0.053c-3.343,3.048-5.377,6.625-5.597,11.178C2.419,48.733,0.861,44.688,0.46,40.37
			c-0.756-8.213,0.567-16.214,3.297-23.989c0.423,2.48,0.779,7.487,0.779,7.487s2.889,8.553,5.717,12.138
			c5.559,7.056,12.879,11.926,20.555,16.328C31.414,52.682,32.004,53.09,32.639,53.415z"/>
	</g>
</g>
<g id="XMLID_3_">
	<g>
		<path fill="#C9D6D5" d="M50.646,19.149c0.499,2.397-0.242,4.757-0.31,7.131c-0.068,2.45-0.083,4.863,0.877,7.177
			c-4.167-0.235-8.258,0.166-12.327,1.195c-1.46,0.363-1.831,5.362-2.586,6.004c-0.257-0.816,0.794-5.263,0.991-6.02
			c1.134-4.318,2.382-8.622,2.964-13.061c0.544-4.22,0.968-8.463-0.749-12.554c-1.588-2.133-3.154-4.28-5.226-5.99
			C41.972,6.134,48.763,10.157,50.646,19.149z"/>
	</g>
	<g>
		<path fill="none" stroke="#000000" stroke-width="0.5" stroke-linecap="round" stroke-linejoin="round" d="M51.213,33.458
			c-4.167-0.235-8.258,0.166-12.327,1.195c-1.46,0.363-1.831,5.362-2.586,6.004c-0.257-0.816,0.794-5.263,0.991-6.02
			c1.134-4.318,2.382-8.622,2.964-13.061c0.544-4.22,0.968-8.463-0.749-12.554c-1.588-2.133-3.154-4.28-5.226-5.99
			c7.691,3.101,14.482,7.124,16.366,16.116c0.499,2.397-0.242,4.757-0.31,7.131C50.268,28.73,50.252,31.143,51.213,33.458z"/>
	</g>
</g>
<g id="XMLID_5_">
	<g>
		<path fill="#C9D6D5" d="M25.924,3.956c0.885,2.352,1.505,4.961,4.205,6.088c-6.11,1.83-11.896,4.409-17.462,7.502
			c-2.17-2.329-5.166-2.488-8.281-2.806C5.475,8.546,12.046,1.883,19.201,0.764c2.17-0.333,4.371-0.908,6.572-0.106
			C24.457,1.808,25.545,2.95,25.924,3.956z"/>
	</g>
	<g>
		<path fill="none" stroke="#000000" stroke-width="0.5" stroke-linecap="round" stroke-linejoin="round" d="M4.385,14.74
			C5.475,8.546,12.046,1.883,19.201,0.764c2.17-0.333,4.371-0.908,6.572-0.106c-1.316,1.149-0.227,2.292,0.151,3.297
			c0.885,2.352,1.505,4.961,4.205,6.088c-6.11,1.83-11.896,4.409-17.462,7.502C10.496,15.216,7.501,15.058,4.385,14.74z"/>
	</g>
</g>
<g id="XMLID_4_">
	<g>
		<path fill="#FFFFFF" d="M39.506,9.022c-3.176-0.144-6.27,0.484-9.378,1.021c-2.7-1.127-3.32-3.736-4.205-6.088
			c-0.378-1.006-3.842-2.556-2.526-3.706c2.382,0.03,7.033,0.93,9.181,2.004c0.469,0.431,1.029,0.688,1.664,0.756l0.038,0.022
			C36.353,4.742,37.918,6.89,39.506,9.022z"/>
	</g>
	<g>
		<path fill="none" stroke="#000000" stroke-width="0.5" stroke-linecap="round" stroke-linejoin="round" d="M30.128,10.043
			c-2.7-1.127-3.32-3.736-4.205-6.088c-0.378-1.006-3.842-2.556-2.526-3.706c2.382,0.03,7.033,0.93,9.181,2.004
			c0.469,0.431,1.029,0.688,1.664,0.756l0.038,0.022c2.072,1.709,3.638,3.857,5.226,5.99C36.33,8.879,33.237,9.506,30.128,10.043z"
			/>
	</g>
</g>
<g id="XMLID_8_">
	<g>
		<polygon fill="#FFFFFF" points="12.667,17.545 4.537,23.868 4.385,21.841 3.758,16.381 4.385,14.74 6.51,14.967 9.188,15.481 
			11.252,16.381 		"/>
	</g>
	<g>
		<polygon fill="none" stroke="#000000" stroke-width="0.5" stroke-linecap="round" stroke-linejoin="round" points="6.51,14.967 
			9.188,15.481 11.252,16.381 12.667,17.545 4.537,23.868 4.385,21.841 3.758,16.381 4.385,14.74 		"/>
	</g>
</g>
</svg>
